<svg width="630" height="631" viewBox="0 0 630 631" fill="none" xmlns="http://www.w3.org/2000/svg">
<path fill-rule="evenodd" clip-rule="evenodd" d="M490.011 9.686C374.458 -3.22867 255.015 -3.22867 139.462 9.686C72.3929 17.182 18.2486 70.0157 10.3632 137.433C-3.45442 255.577 -3.45442 374.927 10.3632 493.071C18.2486 560.487 72.3929 613.324 139.462 620.817C255.015 633.734 374.458 633.734 490.011 620.817C557.078 613.324 611.225 560.487 619.108 493.071C632.928 374.927 632.928 255.577 619.108 137.433C611.225 70.0157 557.081 17.182 490.011 9.686ZM145.015 59.3767C256.878 46.8743 372.595 46.8743 484.458 59.3767C528.795 64.332 564.311 99.319 569.448 143.242C582.815 257.527 582.815 372.977 569.448 487.264C564.311 531.184 528.795 566.174 484.458 571.127C372.595 583.631 256.878 583.631 145.015 571.127C100.678 566.174 65.1619 531.184 60.0249 487.264C46.6582 372.977 46.6582 257.527 60.0249 143.242C65.1619 99.319 100.678 64.332 145.015 59.3767Z" fill="white"/>
<path d="M264.601 372.587H176.716L158.761 428.36C158.289 430.487 156.399 431.905 154.273 431.668H109.858C107.259 431.668 106.55 430.25 107.259 427.415L183.331 209.287C184.04 206.924 184.749 204.797 185.694 201.961C186.639 196.998 187.111 191.799 187.111 186.6C186.875 185.418 187.82 184.236 189.001 184H189.71H250.19C251.844 184 253.025 184.709 253.261 185.891L339.493 426.942C340.201 429.541 339.493 430.723 337.13 430.723H287.754C286.1 430.959 284.446 429.778 283.974 428.123L264.601 371.406V372.587ZM190.419 325.559H250.426C249.009 320.596 247.119 314.688 244.993 308.543C242.866 302.162 240.74 295.309 238.614 288.219C236.251 280.893 234.125 273.803 231.763 266.477C229.4 259.151 227.274 252.298 225.384 245.444C223.494 238.827 221.84 232.683 220.186 227.011H219.714C217.588 237.173 214.989 247.335 211.681 257.497C208.138 268.841 204.594 280.657 200.814 292.473C197.743 304.526 193.963 315.633 190.419 325.559Z" fill="white"/>
<path d="M478.644 351.317H403.753C404.698 358.643 407.06 365.969 411.076 372.35C415.329 378.731 421.235 383.694 428.323 386.53C437.773 390.547 448.168 392.674 458.563 392.438C466.831 392.201 475.1 391.492 483.133 389.838C490.456 388.893 497.544 387.002 504.159 384.403C505.34 383.457 506.049 383.93 506.049 386.293V422.451C506.049 423.396 505.813 424.342 505.576 425.287C505.104 425.996 504.631 426.469 503.923 426.941C496.363 430.25 488.566 432.613 480.298 434.031C469.194 436.158 458.09 437.103 446.75 436.867C428.795 436.867 413.675 434.031 401.39 428.595C389.814 423.633 379.655 415.834 371.623 406.145C364.063 396.928 358.629 386.53 355.321 375.186C352.014 364.079 350.36 352.499 350.36 340.683C350.36 327.921 352.25 315.396 356.266 303.107C360.046 291.291 365.953 280.42 373.985 270.731C381.781 261.278 391.468 253.715 402.571 248.28C413.675 242.844 426.905 240.954 442.025 240.954C454.546 240.717 467.068 243.081 478.644 248.28C488.33 252.534 496.835 258.914 503.45 267.186C509.593 275.221 514.554 284.201 517.625 294.127C520.696 303.58 522.114 313.269 522.114 322.958C522.114 328.63 521.878 333.593 521.641 338.083C521.169 342.573 520.933 345.882 520.696 348.009C520.46 349.663 519.043 351.081 517.389 351.081C515.971 351.081 513.373 351.317 509.593 351.554C505.813 352.026 501.324 352.263 495.89 352.263C490.456 352.263 484.786 351.317 478.644 351.317ZM403.753 316.814H453.601C459.744 316.814 464.233 316.814 467.068 316.578C468.958 316.341 470.848 315.869 472.501 314.687V312.324C472.501 309.251 472.029 306.416 471.084 303.58C466.831 290.345 454.31 281.365 440.371 281.838C427.378 281.129 415.093 287.982 408.95 299.798C406.115 305.234 404.461 310.906 403.753 316.814Z" fill="white"/>
</svg>
