<svg width="630" height="631" viewBox="0 0 630 631" fill="none" xmlns="http://www.w3.org/2000/svg">
<path d="M445.818 253.35V431.916H400.352V253.35H445.818Z" fill="white"/>
<path d="M397.785 203.485C397.785 189.551 408.052 178.918 423.085 178.918C438.485 178.918 448.019 189.551 448.385 203.485C448.385 217.051 438.485 227.685 422.718 227.685C407.685 227.685 397.785 217.051 397.785 203.485Z" fill="white"/>
<path fill-rule="evenodd" clip-rule="evenodd" d="M335.868 431.917L313.502 361.884H235.036L213.77 431.917H167.203L246.403 184.785H303.968L384.268 431.917H335.868ZM261.435 266.917L242.37 327.784H305.802L286.368 266.917C282.512 254.751 279.135 241.383 276.042 229.146C275.315 226.264 274.602 223.445 273.902 220.718H273.168C271.915 225.616 270.658 230.858 269.372 236.223C266.905 246.521 264.328 257.277 261.435 266.917Z" fill="white"/>
<path fill-rule="evenodd" clip-rule="evenodd" d="M490.012 9.686C374.459 -3.22867 255.012 -3.22867 139.461 9.686C72.3928 17.182 18.2485 70.0157 10.3635 137.433C-3.4545 255.577 -3.4545 374.927 10.3635 493.071C18.2485 560.487 72.3928 613.324 139.461 620.817C255.012 633.734 374.459 633.734 490.012 620.817C557.079 613.324 611.223 560.487 619.109 493.071C632.926 374.927 632.926 255.577 619.109 137.433C611.223 70.0157 557.079 17.182 490.012 9.686ZM145.015 59.3767C256.876 46.8743 372.596 46.8743 484.456 59.3767C528.796 64.332 564.309 99.319 569.449 143.242C582.816 257.527 582.816 372.977 569.449 487.264C564.309 531.184 528.796 566.174 484.456 571.127C372.596 583.631 256.876 583.631 145.015 571.127C100.678 566.174 65.1618 531.184 60.0248 487.264C46.6582 372.977 46.6582 257.527 60.0248 143.242C65.1618 99.319 100.678 64.332 145.015 59.3767Z" fill="white"/>
</svg>
