<svg width="630" height="631" viewBox="0 0 630 631" fill="none" xmlns="http://www.w3.org/2000/svg">
<path d="M308.045 371.449H220.47L202.579 426.785C202.108 428.904 200.225 430.317 198.106 430.081H153.847C151.258 430.081 150.552 428.668 151.258 425.843L227.062 207.562C227.768 205.207 228.475 202.617 229.416 199.791C230.358 194.847 230.829 189.666 230.829 184.486C230.593 183.309 231.535 182.131 232.712 181.896H293.685C295.568 181.896 296.51 182.602 296.745 183.779L382.672 426.314C383.379 428.904 382.672 430.081 380.318 430.081H331.116C329.468 430.317 327.82 429.139 327.35 427.491L308.045 371.449ZM234.125 323.649H293.92C292.508 318.704 290.625 312.817 288.506 306.695C286.387 300.337 284.268 293.509 282.15 286.444C279.795 279.145 277.677 272.081 275.322 264.781C272.968 257.482 270.85 250.653 268.966 243.824C267.083 237.231 265.435 231.109 263.787 225.458H263.316C261.197 235.583 258.608 245.708 255.312 255.833C251.781 267.136 248.25 278.909 244.483 290.683C241.187 302.692 237.656 313.759 234.125 323.649ZM435.17 223.103C427.402 223.338 419.868 220.277 414.218 214.862C408.804 208.975 405.979 201.204 406.214 193.198C405.979 185.192 409.039 177.657 414.689 172.241C420.339 166.826 427.873 164 435.641 164C444.823 164 451.885 166.826 457.064 172.241C462.243 177.893 465.068 185.428 464.833 193.198C465.068 201.204 462.243 208.975 456.593 214.862C451.179 220.513 443.175 223.574 435.17 223.103ZM408.804 427.491V246.179C408.804 243.824 409.745 242.882 411.864 242.882H458.477C460.595 242.882 461.537 244.06 461.537 246.179V427.491C461.537 430.081 460.595 431.259 458.477 431.259H412.335C409.981 431.259 408.804 429.846 408.804 427.491Z" fill="white"/>
<path fill-rule="evenodd" clip-rule="evenodd" d="M490.011 9.686C374.458 -3.22867 255.015 -3.22867 139.462 9.686C72.3929 17.182 18.2486 70.0157 10.3632 137.433C-3.45442 255.577 -3.45442 374.927 10.3632 493.071C18.2486 560.487 72.3929 613.324 139.462 620.817C255.015 633.734 374.458 633.734 490.011 620.817C557.078 613.324 611.225 560.487 619.108 493.071C632.928 374.927 632.928 255.577 619.108 137.433C611.225 70.0157 557.081 17.182 490.011 9.686ZM145.015 59.3767C256.878 46.8743 372.595 46.8743 484.458 59.3767C528.795 64.332 564.311 99.319 569.448 143.242C582.815 257.527 582.815 372.977 569.448 487.264C564.311 531.184 528.795 566.174 484.458 571.127C372.595 583.631 256.878 583.631 145.015 571.127C100.678 566.174 65.1619 531.184 60.0249 487.264C46.6582 372.977 46.6582 257.527 60.0249 143.242C65.1619 99.319 100.678 64.332 145.015 59.3767Z" fill="white"/>
</svg>
