<svg width="236" height="236" viewBox="0 0 236 236" fill="none" xmlns="http://www.w3.org/2000/svg">
<path d="M80.0004 67.3008C74.0004 67.3008 70.0004 67.9008 67.9004 68.5008V106.901C70.4004 107.501 73.5004 107.601 77.7004 107.601C93.3004 107.601 103 99.7008 103 86.4008C103 74.5008 94.7004 67.3008 80.0004 67.3008Z" fill="white"/>
<path d="M221.6 0H14.4C6.4 0 0 6.5 0 14.4V221.5C0 229.5 6.5 235.9 14.4 235.9H221.5C229.5 235.9 235.9 229.4 235.9 221.5V14.4C236 6.5 229.5 0 221.6 0ZM120.1 116.5C110.1 126 95.2 130.2 77.9 130.2C74 130.2 70.6 130 67.9 129.6V176.1H38.7V47.8C47.8 46.3 60.5 45.1 78.4 45.1C96.5 45.1 109.5 48.6 118.1 55.5C126.4 62.1 132 72.9 132 85.6C132 98.3 127.9 109.2 120.1 116.5ZM164.1 178C151.7 178 140.7 175.3 133.6 171.4L138.8 150.4C144.2 153.7 155.4 157.5 164.1 157.5C172.9 157.5 176.6 154.4 176.6 149.6C176.6 144.8 173.7 142.5 162.7 138.8C143.2 132.2 135.7 121.6 135.9 110.4C135.9 92.9 151 79.5 174.3 79.5C185.3 79.5 195.1 82 200.9 84.9L195.7 105.2C191.5 102.9 183.4 99.8 175.3 99.8C168.2 99.8 164.1 102.7 164.1 107.5C164.1 111.9 167.7 114.2 179.3 118.3C197.2 124.5 204.8 133.5 204.9 147.4C205 165.1 191 178 164.1 178Z" fill="white"/>
</svg>
