<svg width="630" height="631" viewBox="0 0 630 631" fill="none" xmlns="http://www.w3.org/2000/svg">
<path fill-rule="evenodd" clip-rule="evenodd" d="M490.013 9.686C374.459 -3.22867 255.012 -3.22867 139.462 9.686C72.3928 17.182 18.2485 70.0157 10.3635 137.433C-3.4545 255.577 -3.4545 374.927 10.3635 493.071C18.2485 560.487 72.3928 613.324 139.462 620.817C255.012 633.734 374.459 633.734 490.013 620.817C557.079 613.324 611.223 560.487 619.109 493.071C632.926 374.927 632.926 255.577 619.109 137.433C611.223 70.0157 557.079 17.182 490.013 9.686ZM145.015 59.3767C256.876 46.8743 372.596 46.8743 484.456 59.3767C528.796 64.332 564.309 99.319 569.449 143.242C582.816 257.527 582.816 372.977 569.449 487.264C564.309 531.184 528.796 566.174 484.456 571.127C372.596 583.631 256.876 583.631 145.015 571.127C100.678 566.174 65.1618 531.184 60.0248 487.264C46.6582 372.977 46.6582 257.527 60.0248 143.242C65.1618 99.319 100.678 64.332 145.015 59.3767Z" fill="white"/>
<path d="M235.033 188.137V428.471C235.033 431.037 233.867 432.204 231.767 432.204H186.033C183.933 432.204 183 431.037 183 428.471V188.137C183 186.037 184.167 185.104 186.267 185.104H231.767C233.167 184.871 234.567 185.804 234.8 187.437C235.033 187.671 235.033 187.904 235.033 188.137Z" fill="white"/>
<path d="M369.9 435.003C352.634 435.236 335.367 431.736 319.734 424.503C305.034 417.736 292.9 406.536 284.5 392.77C275.867 378.536 271.667 360.803 271.667 339.57C271.434 322.303 275.867 305.27 284.5 290.336C293.367 275.17 306.2 262.57 321.6 254.17C337.934 245.07 357.534 240.636 380.634 240.636C381.8 240.636 383.434 240.636 385.534 240.87C387.634 241.103 389.967 241.103 392.767 241.336V167.603C392.767 165.97 393.467 165.036 395.1 165.036H442.467C443.634 164.803 444.567 165.736 444.8 166.67V167.136V389.27C444.8 393.47 445.034 398.136 445.267 403.27C445.734 408.17 445.967 412.836 446.2 416.803C446.2 418.436 445.5 419.836 443.867 420.536C431.734 425.67 418.9 429.403 405.834 431.736C394.167 433.836 382.034 435.003 369.9 435.003ZM392.767 388.336V285.67C390.667 285.203 388.567 284.736 386.467 284.503C383.9 284.27 381.334 284.036 378.767 284.036C369.667 284.036 360.567 285.903 352.4 290.103C344.467 294.07 337.7 299.903 332.567 307.37C327.434 314.836 324.867 324.87 324.867 337.003C324.634 345.17 326.034 353.336 328.834 361.036C331.167 367.336 334.667 372.936 339.334 377.603C343.767 381.803 349.134 385.07 355.2 386.936C361.5 389.036 368.034 389.97 374.567 389.97C378.067 389.97 381.334 389.736 384.367 389.503C387.4 389.736 390.2 389.27 392.767 388.336Z" fill="white"/>
</svg>
