<svg width="521" height="667" viewBox="0 0 521 667" fill="none" xmlns="http://www.w3.org/2000/svg">
<path d="M256.836 641.667C208.502 641.667 165.169 628.75 128.086 603.75C91.419 578.75 63.919 542.917 46.0023 497.083C35.5857 470.417 29.3357 441.25 26.419 407.917C23.0857 368.333 25.5857 327.917 34.3357 288.333C48.0857 224.583 76.0023 169.583 116.836 123.75C157.252 78.75 205.169 48.3333 259.752 34.1667C283.086 27.9167 306.419 25 328.502 25C355.169 25 381.419 29.5833 406.419 38.75C443.502 52.5 468.919 76.25 481.002 109.583C486.836 125 488.502 141.25 486.836 159.583C484.336 185.417 476.002 208.333 461.836 227.917C445.586 250.417 426.002 264.167 402.252 270C398.086 271.25 393.502 271.667 388.502 271.667C386.419 271.667 384.752 271.667 382.669 271.25C375.586 270.417 369.336 267.5 365.169 262.083C361.002 256.667 359.336 249.583 360.169 242.5C361.419 234.167 364.752 227.083 368.086 221.25L369.336 218.75C376.002 205.417 382.252 192.917 385.586 179.583C391.002 157.083 391.002 140 385.169 124.167C378.919 107.5 367.252 97.0833 349.752 92.9167C343.086 91.25 336.419 90.4167 329.752 90.4167C314.752 90.4167 298.919 94.1667 282.252 101.667C249.336 116.667 221.419 141.667 197.669 177.917C181.419 202.917 168.919 230.833 159.752 263.333C153.086 286.667 148.919 311.25 146.419 336.667C145.169 348.75 144.336 362.917 144.336 376.667C144.752 417.083 150.586 449.167 163.086 477.5C176.836 509.167 195.586 531.25 221.002 545.417C238.086 555 257.252 560 277.669 560C281.002 560 284.752 560 288.502 559.583C331.836 556.25 370.169 536.667 405.169 500C423.086 481.25 438.086 459.583 451.002 433.75C453.086 430 455.169 425.833 458.502 422.5C462.669 417.917 468.086 415.417 473.919 415.417C481.002 415.417 487.252 419.167 491.419 425.833C496.419 434.167 496.002 443.333 495.169 449.167C492.669 466.25 486.419 482.917 476.002 502.5C446.002 556.25 404.752 595.833 353.502 620.417C327.252 632.917 298.919 640 269.752 641.25C265.169 641.667 261.002 641.667 256.836 641.667Z" stroke="white" stroke-width="50" stroke-miterlimit="10" stroke-linejoin="round"/>
</svg>
