<svg width="630" height="631" viewBox="0 0 630 631" fill="none" xmlns="http://www.w3.org/2000/svg">
<path fill-rule="evenodd" clip-rule="evenodd" d="M217.917 431.916H173.184V188.085C189.317 185.151 211.684 182.951 242.117 182.951C275.118 182.951 299.318 189.918 315.085 203.118C329.752 215.218 339.285 234.651 339.285 257.75C339.285 281.216 331.952 300.65 318.018 313.85C300.052 331.816 271.818 340.25 239.917 340.25C231.484 340.25 223.784 339.883 217.917 338.783V431.916ZM243.95 217.418C231.484 217.418 222.684 218.518 217.917 219.618V303.216C223.417 304.683 230.75 305.05 239.917 305.05C273.652 305.05 294.185 288.55 294.185 259.583C294.185 232.084 275.118 217.418 243.95 217.418Z" fill="white"/>
<path d="M368.631 241.983H408.603C410.807 242.004 412.786 243.59 413.368 245.807C416.298 252.588 416.66 260.767 416.67 268.088C423.525 259.765 431.79 252.833 441.055 247.632C450.992 241.771 462.256 238.799 473.67 239.03C475.566 238.747 477.242 240.496 476.971 242.47V288.734C476.971 290.521 475.745 291.411 473.304 291.411C456.385 290.193 430.046 294.361 417.752 308.234V428.525C417.752 430.82 416.775 431.967 414.819 431.967H371.932C369.826 432.281 367.967 430.305 368.265 428.143V297.528C368.265 280.027 368.629 261.998 366.065 244.66C365.67 243.064 367.134 241.581 368.631 241.983Z" fill="white"/>
<path fill-rule="evenodd" clip-rule="evenodd" d="M490.011 9.686C374.458 -3.22867 255.015 -3.22867 139.462 9.686C72.3929 17.182 18.2486 70.0157 10.3632 137.433C-3.45442 255.577 -3.45442 374.927 10.3632 493.071C18.2486 560.487 72.3929 613.324 139.462 620.817C255.015 633.734 374.458 633.734 490.011 620.817C557.078 613.324 611.225 560.487 619.108 493.071C632.928 374.927 632.928 255.577 619.108 137.433C611.225 70.0157 557.081 17.182 490.011 9.686ZM145.015 59.3767C256.878 46.8743 372.595 46.8743 484.458 59.3767C528.795 64.332 564.311 99.319 569.448 143.242C582.815 257.527 582.815 372.977 569.448 487.264C564.311 531.184 528.795 566.174 484.458 571.127C372.595 583.631 256.878 583.631 145.015 571.127C100.678 566.174 65.1619 531.184 60.0249 487.264C46.6582 372.977 46.6582 257.527 60.0249 143.242C65.1619 99.319 100.678 64.332 145.015 59.3767Z" fill="white"/>
</svg>
