<svg width="630" height="631" viewBox="0 0 630 631" fill="none" xmlns="http://www.w3.org/2000/svg">
<path fill-rule="evenodd" clip-rule="evenodd" d="M217.917 431.916H173.184V188.085C189.317 185.151 211.684 182.951 242.117 182.951C275.118 182.951 299.318 189.918 315.085 203.118C329.752 215.218 339.285 234.651 339.285 257.75C339.285 281.216 331.952 300.65 318.018 313.85C300.052 331.816 271.818 340.25 239.917 340.25C231.484 340.25 223.784 339.883 217.917 338.783V431.916ZM243.95 217.418C231.484 217.418 222.684 218.518 217.917 219.618V303.216C223.417 304.683 230.75 305.05 239.917 305.05C273.652 305.05 294.185 288.55 294.185 259.583C294.185 232.084 275.118 217.418 243.95 217.418Z" fill="white"/>
<path d="M396.892 435.95C375.258 435.95 355.825 430.45 342.625 423.116L351.425 390.483C361.692 396.716 381.125 403.316 397.258 403.316C417.058 403.316 425.858 395.25 425.858 383.516C425.858 371.416 418.525 365.183 396.525 357.483C361.692 345.383 347.025 326.316 347.392 305.416C347.392 273.883 373.425 249.316 414.858 249.316C434.658 249.316 451.892 254.45 462.158 259.95L453.358 291.85C445.658 287.45 431.358 281.583 415.592 281.583C399.458 281.583 390.658 289.283 390.658 300.283C390.658 311.65 399.092 317.15 421.825 325.216C454.092 336.95 469.125 353.45 469.492 379.85C469.492 412.116 444.192 435.95 396.892 435.95Z" fill="white"/>
<path fill-rule="evenodd" clip-rule="evenodd" d="M490.011 9.686C374.458 -3.22867 255.015 -3.22867 139.462 9.686C72.3929 17.182 18.2486 70.0157 10.3632 137.433C-3.45442 255.577 -3.45442 374.927 10.3632 493.071C18.2486 560.487 72.3929 613.324 139.462 620.817C255.015 633.734 374.458 633.734 490.011 620.817C557.078 613.324 611.225 560.487 619.108 493.071C632.928 374.927 632.928 255.577 619.108 137.433C611.225 70.0157 557.081 17.182 490.011 9.686ZM145.015 59.3767C256.878 46.8743 372.595 46.8743 484.458 59.3767C528.795 64.332 564.311 99.319 569.448 143.242C582.815 257.527 582.815 372.977 569.448 487.264C564.311 531.184 528.795 566.174 484.458 571.127C372.595 583.631 256.878 583.631 145.015 571.127C100.678 566.174 65.1619 531.184 60.0249 487.264C46.6582 372.977 46.6582 257.527 60.0249 143.242C65.1619 99.319 100.678 64.332 145.015 59.3767Z" fill="white"/>
</svg>
